G04 EAGLE Gerber X2 export*
%TF.Part,Single*%
%TF.FileFunction,Profile,NP*%
%TF.FilePolarity,Positive*%
%TF.GenerationSoftware,Autodesk,EAGLE,9.6.2*%
%TF.CreationDate,2021-10-14T16:19:12Z*%
G75*
%MOMM*%
%FSLAX36Y36*%
%LPD*%
%INBoard Outline*%
%AMOC8*
5,1,8,0,0,1.08239X$1,22.5*%
G01*
%ADD10C,0.254000*%


D10*
X0Y0D02*
X60000000Y0D01*
X60000000Y40000000D01*
X0Y40000000D01*
X0Y0D01*
X6600000Y34947622D02*
X6593150Y34843088D01*
X6579475Y34739228D01*
X6559038Y34636484D01*
X6531925Y34535297D01*
X6498253Y34436097D01*
X6458163Y34339316D01*
X6411831Y34245363D01*
X6359450Y34154638D01*
X6301250Y34067538D01*
X6237478Y33984428D01*
X6168409Y33905666D01*
X6094334Y33831591D01*
X6015572Y33762522D01*
X5932463Y33698750D01*
X5845363Y33640550D01*
X5754638Y33588169D01*
X5660684Y33541838D01*
X5563903Y33501747D01*
X5464703Y33468075D01*
X5363516Y33440963D01*
X5260772Y33420525D01*
X5156913Y33406850D01*
X5052378Y33400000D01*
X4947622Y33400000D01*
X4843088Y33406850D01*
X4739228Y33420525D01*
X4636484Y33440963D01*
X4535297Y33468075D01*
X4436097Y33501747D01*
X4339316Y33541838D01*
X4245363Y33588169D01*
X4154638Y33640550D01*
X4067538Y33698750D01*
X3984428Y33762522D01*
X3905666Y33831591D01*
X3831591Y33905666D01*
X3762522Y33984428D01*
X3698750Y34067538D01*
X3640550Y34154638D01*
X3588169Y34245363D01*
X3541838Y34339316D01*
X3501747Y34436097D01*
X3468075Y34535297D01*
X3440963Y34636484D01*
X3420525Y34739228D01*
X3406850Y34843088D01*
X3400000Y34947622D01*
X3400000Y35052378D01*
X3406850Y35156913D01*
X3420525Y35260772D01*
X3440963Y35363516D01*
X3468075Y35464703D01*
X3501747Y35563903D01*
X3541838Y35660684D01*
X3588169Y35754638D01*
X3640550Y35845363D01*
X3698750Y35932463D01*
X3762522Y36015572D01*
X3831591Y36094334D01*
X3905666Y36168409D01*
X3984428Y36237478D01*
X4067538Y36301250D01*
X4154638Y36359450D01*
X4245363Y36411831D01*
X4339316Y36458163D01*
X4436097Y36498253D01*
X4535297Y36531925D01*
X4636484Y36559038D01*
X4739228Y36579475D01*
X4843088Y36593150D01*
X4947622Y36600000D01*
X5052378Y36600000D01*
X5156913Y36593150D01*
X5260772Y36579475D01*
X5363516Y36559038D01*
X5464703Y36531925D01*
X5563903Y36498253D01*
X5660684Y36458163D01*
X5754638Y36411831D01*
X5845363Y36359450D01*
X5932463Y36301250D01*
X6015572Y36237478D01*
X6094334Y36168409D01*
X6168409Y36094334D01*
X6237478Y36015572D01*
X6301250Y35932463D01*
X6359450Y35845363D01*
X6411831Y35754638D01*
X6458163Y35660684D01*
X6498253Y35563903D01*
X6531925Y35464703D01*
X6559038Y35363516D01*
X6579475Y35260772D01*
X6593150Y35156913D01*
X6600000Y35052378D01*
X6600000Y34947622D01*
X56600000Y34947622D02*
X56593150Y34843088D01*
X56579475Y34739228D01*
X56559038Y34636484D01*
X56531925Y34535297D01*
X56498253Y34436097D01*
X56458163Y34339316D01*
X56411831Y34245363D01*
X56359450Y34154638D01*
X56301250Y34067538D01*
X56237478Y33984428D01*
X56168409Y33905666D01*
X56094334Y33831591D01*
X56015572Y33762522D01*
X55932463Y33698750D01*
X55845363Y33640550D01*
X55754638Y33588169D01*
X55660684Y33541838D01*
X55563903Y33501747D01*
X55464703Y33468075D01*
X55363516Y33440963D01*
X55260772Y33420525D01*
X55156913Y33406850D01*
X55052378Y33400000D01*
X54947622Y33400000D01*
X54843088Y33406850D01*
X54739228Y33420525D01*
X54636484Y33440963D01*
X54535297Y33468075D01*
X54436097Y33501747D01*
X54339316Y33541838D01*
X54245363Y33588169D01*
X54154638Y33640550D01*
X54067538Y33698750D01*
X53984428Y33762522D01*
X53905666Y33831591D01*
X53831591Y33905666D01*
X53762522Y33984428D01*
X53698750Y34067538D01*
X53640550Y34154638D01*
X53588169Y34245363D01*
X53541838Y34339316D01*
X53501747Y34436097D01*
X53468075Y34535297D01*
X53440963Y34636484D01*
X53420525Y34739228D01*
X53406850Y34843088D01*
X53400000Y34947622D01*
X53400000Y35052378D01*
X53406850Y35156913D01*
X53420525Y35260772D01*
X53440963Y35363516D01*
X53468075Y35464703D01*
X53501747Y35563903D01*
X53541838Y35660684D01*
X53588169Y35754638D01*
X53640550Y35845363D01*
X53698750Y35932463D01*
X53762522Y36015572D01*
X53831591Y36094334D01*
X53905666Y36168409D01*
X53984428Y36237478D01*
X54067538Y36301250D01*
X54154638Y36359450D01*
X54245363Y36411831D01*
X54339316Y36458163D01*
X54436097Y36498253D01*
X54535297Y36531925D01*
X54636484Y36559038D01*
X54739228Y36579475D01*
X54843088Y36593150D01*
X54947622Y36600000D01*
X55052378Y36600000D01*
X55156913Y36593150D01*
X55260772Y36579475D01*
X55363516Y36559038D01*
X55464703Y36531925D01*
X55563903Y36498253D01*
X55660684Y36458163D01*
X55754638Y36411831D01*
X55845363Y36359450D01*
X55932463Y36301250D01*
X56015572Y36237478D01*
X56094334Y36168409D01*
X56168409Y36094334D01*
X56237478Y36015572D01*
X56301250Y35932463D01*
X56359450Y35845363D01*
X56411831Y35754638D01*
X56458163Y35660684D01*
X56498253Y35563903D01*
X56531925Y35464703D01*
X56559038Y35363516D01*
X56579475Y35260772D01*
X56593150Y35156913D01*
X56600000Y35052378D01*
X56600000Y34947622D01*
X56600000Y4947622D02*
X56593150Y4843088D01*
X56579475Y4739228D01*
X56559038Y4636484D01*
X56531925Y4535297D01*
X56498253Y4436097D01*
X56458163Y4339316D01*
X56411831Y4245363D01*
X56359450Y4154638D01*
X56301250Y4067538D01*
X56237478Y3984428D01*
X56168409Y3905666D01*
X56094334Y3831591D01*
X56015572Y3762522D01*
X55932463Y3698750D01*
X55845363Y3640550D01*
X55754638Y3588169D01*
X55660684Y3541838D01*
X55563903Y3501747D01*
X55464703Y3468075D01*
X55363516Y3440963D01*
X55260772Y3420525D01*
X55156913Y3406850D01*
X55052378Y3400000D01*
X54947622Y3400000D01*
X54843088Y3406850D01*
X54739228Y3420525D01*
X54636484Y3440963D01*
X54535297Y3468075D01*
X54436097Y3501747D01*
X54339316Y3541838D01*
X54245363Y3588169D01*
X54154638Y3640550D01*
X54067538Y3698750D01*
X53984428Y3762522D01*
X53905666Y3831591D01*
X53831591Y3905666D01*
X53762522Y3984428D01*
X53698750Y4067538D01*
X53640550Y4154638D01*
X53588169Y4245363D01*
X53541838Y4339316D01*
X53501747Y4436097D01*
X53468075Y4535297D01*
X53440963Y4636484D01*
X53420525Y4739228D01*
X53406850Y4843088D01*
X53400000Y4947622D01*
X53400000Y5052378D01*
X53406850Y5156913D01*
X53420525Y5260772D01*
X53440963Y5363516D01*
X53468075Y5464703D01*
X53501747Y5563903D01*
X53541838Y5660684D01*
X53588169Y5754638D01*
X53640550Y5845363D01*
X53698750Y5932463D01*
X53762522Y6015572D01*
X53831591Y6094334D01*
X53905666Y6168409D01*
X53984428Y6237478D01*
X54067538Y6301250D01*
X54154638Y6359450D01*
X54245363Y6411831D01*
X54339316Y6458163D01*
X54436097Y6498253D01*
X54535297Y6531925D01*
X54636484Y6559038D01*
X54739228Y6579475D01*
X54843088Y6593150D01*
X54947622Y6600000D01*
X55052378Y6600000D01*
X55156913Y6593150D01*
X55260772Y6579475D01*
X55363516Y6559038D01*
X55464703Y6531925D01*
X55563903Y6498253D01*
X55660684Y6458163D01*
X55754638Y6411831D01*
X55845363Y6359450D01*
X55932463Y6301250D01*
X56015572Y6237478D01*
X56094334Y6168409D01*
X56168409Y6094334D01*
X56237478Y6015572D01*
X56301250Y5932463D01*
X56359450Y5845363D01*
X56411831Y5754638D01*
X56458163Y5660684D01*
X56498253Y5563903D01*
X56531925Y5464703D01*
X56559038Y5363516D01*
X56579475Y5260772D01*
X56593150Y5156913D01*
X56600000Y5052378D01*
X56600000Y4947622D01*
X6600000Y4947622D02*
X6593150Y4843088D01*
X6579475Y4739228D01*
X6559038Y4636484D01*
X6531925Y4535297D01*
X6498253Y4436097D01*
X6458163Y4339316D01*
X6411831Y4245363D01*
X6359450Y4154638D01*
X6301250Y4067538D01*
X6237478Y3984428D01*
X6168409Y3905666D01*
X6094334Y3831591D01*
X6015572Y3762522D01*
X5932463Y3698750D01*
X5845363Y3640550D01*
X5754638Y3588169D01*
X5660684Y3541838D01*
X5563903Y3501747D01*
X5464703Y3468075D01*
X5363516Y3440963D01*
X5260772Y3420525D01*
X5156913Y3406850D01*
X5052378Y3400000D01*
X4947622Y3400000D01*
X4843088Y3406850D01*
X4739228Y3420525D01*
X4636484Y3440963D01*
X4535297Y3468075D01*
X4436097Y3501747D01*
X4339316Y3541838D01*
X4245363Y3588169D01*
X4154638Y3640550D01*
X4067538Y3698750D01*
X3984428Y3762522D01*
X3905666Y3831591D01*
X3831591Y3905666D01*
X3762522Y3984428D01*
X3698750Y4067538D01*
X3640550Y4154638D01*
X3588169Y4245363D01*
X3541838Y4339316D01*
X3501747Y4436097D01*
X3468075Y4535297D01*
X3440963Y4636484D01*
X3420525Y4739228D01*
X3406850Y4843088D01*
X3400000Y4947622D01*
X3400000Y5052378D01*
X3406850Y5156913D01*
X3420525Y5260772D01*
X3440963Y5363516D01*
X3468075Y5464703D01*
X3501747Y5563903D01*
X3541838Y5660684D01*
X3588169Y5754638D01*
X3640550Y5845363D01*
X3698750Y5932463D01*
X3762522Y6015572D01*
X3831591Y6094334D01*
X3905666Y6168409D01*
X3984428Y6237478D01*
X4067538Y6301250D01*
X4154638Y6359450D01*
X4245363Y6411831D01*
X4339316Y6458163D01*
X4436097Y6498253D01*
X4535297Y6531925D01*
X4636484Y6559038D01*
X4739228Y6579475D01*
X4843088Y6593150D01*
X4947622Y6600000D01*
X5052378Y6600000D01*
X5156913Y6593150D01*
X5260772Y6579475D01*
X5363516Y6559038D01*
X5464703Y6531925D01*
X5563903Y6498253D01*
X5660684Y6458163D01*
X5754638Y6411831D01*
X5845363Y6359450D01*
X5932463Y6301250D01*
X6015572Y6237478D01*
X6094334Y6168409D01*
X6168409Y6094334D01*
X6237478Y6015572D01*
X6301250Y5932463D01*
X6359450Y5845363D01*
X6411831Y5754638D01*
X6458163Y5660684D01*
X6498253Y5563903D01*
X6531925Y5464703D01*
X6559038Y5363516D01*
X6579475Y5260772D01*
X6593150Y5156913D01*
X6600000Y5052378D01*
X6600000Y4947622D01*
M02*
