G04 EAGLE Gerber X2 export*
%TF.Part,Single*%
%TF.FileFunction,Soldermask,Top*%
%TF.FilePolarity,Positive*%
%TF.GenerationSoftware,Autodesk,EAGLE,9.6.2*%
%TF.CreationDate,2021-10-14T21:10:46Z*%
G75*
%MOIN*%
%FSLAX36Y36*%
%LPD*%
%INTop Solder Mask*%
%AMOC8*
5,1,8,0,0,1.08239X$1,22.5*%
G01*
%ADD10R,0.082803X0.031622*%
%ADD11C,0.024828*%
%ADD12R,0.047370X0.051307*%
%ADD13R,0.035559X0.031622*%
%ADD14C,0.054602*%
%ADD15R,0.051307X0.047370*%
%ADD16R,0.141858X0.082803*%
%ADD17C,0.078500*%
%ADD18C,0.133984*%
%ADD19P,0.100662X8X22.500000*%
%ADD20C,0.010000*%


D10*
X909449Y654921D03*
X1137795Y654921D03*
X909449Y704921D03*
X909449Y604921D03*
X909449Y554921D03*
X1137795Y704921D03*
X1137795Y604921D03*
X1137795Y554921D03*
D11*
X1073279Y571406D02*
X973965Y571406D01*
X973965Y688436D01*
X1073279Y688436D01*
X1073279Y571406D01*
X1073279Y594993D02*
X973965Y594993D01*
X973965Y618580D02*
X1073279Y618580D01*
X1073279Y642167D02*
X973965Y642167D01*
X973965Y665754D02*
X1073279Y665754D01*
D12*
X1417323Y584646D03*
X1417323Y517717D03*
D13*
X748031Y570866D03*
X748031Y531496D03*
D12*
X1417323Y675197D03*
X1417323Y742126D03*
D14*
X1267053Y968183D02*
X1267053Y1472761D01*
X1267053Y968183D02*
X1126647Y968183D01*
X1126647Y1472761D01*
X1267053Y1472761D01*
X1267053Y1020055D02*
X1126647Y1020055D01*
X1126647Y1071927D02*
X1267053Y1071927D01*
X1267053Y1123799D02*
X1126647Y1123799D01*
X1126647Y1175671D02*
X1267053Y1175671D01*
X1267053Y1227543D02*
X1126647Y1227543D01*
X1126647Y1279415D02*
X1267053Y1279415D01*
X1267053Y1331287D02*
X1126647Y1331287D01*
X1126647Y1383159D02*
X1267053Y1383159D01*
X1267053Y1435031D02*
X1126647Y1435031D01*
X1629258Y1472761D02*
X1629258Y968183D01*
X1488852Y968183D01*
X1488852Y1472761D01*
X1629258Y1472761D01*
X1629258Y1020055D02*
X1488852Y1020055D01*
X1488852Y1071927D02*
X1629258Y1071927D01*
X1629258Y1123799D02*
X1488852Y1123799D01*
X1488852Y1175671D02*
X1629258Y1175671D01*
X1629258Y1227543D02*
X1488852Y1227543D01*
X1488852Y1279415D02*
X1629258Y1279415D01*
X1629258Y1331287D02*
X1488852Y1331287D01*
X1488852Y1383159D02*
X1629258Y1383159D01*
X1629258Y1435031D02*
X1488852Y1435031D01*
D12*
X1141732Y281496D03*
X1141732Y348425D03*
D15*
X1299213Y348425D03*
X1299213Y281496D03*
D12*
X911417Y354331D03*
X978346Y354331D03*
X1653543Y584646D03*
X1653543Y517717D03*
X1377953Y190945D03*
X1377953Y124016D03*
D16*
X748031Y671260D03*
X748031Y824803D03*
D17*
X282100Y610236D02*
X211600Y610236D01*
X211600Y807087D02*
X282100Y807087D01*
D18*
X196850Y1377953D03*
X2165354Y1377953D03*
X2165354Y196850D03*
D17*
X2171864Y570866D02*
X2101364Y570866D01*
X2101364Y767717D02*
X2171864Y767717D01*
D18*
X196850Y196850D03*
D19*
X1074803Y417323D03*
X1102362Y826772D03*
X1527559Y610236D03*
D20*
X0Y137795D02*
X524Y125786D01*
X2093Y113867D01*
X4695Y102131D01*
X8310Y90666D01*
X12910Y79561D01*
X18461Y68898D01*
X24920Y58759D01*
X32238Y49222D01*
X40359Y40359D01*
X49222Y32238D01*
X58759Y24920D01*
X68898Y18461D01*
X79561Y12910D01*
X90666Y8310D01*
X102131Y4695D01*
X113867Y2093D01*
X125786Y524D01*
X137795Y0D01*
X2224409Y0D01*
X2236419Y524D01*
X2248337Y2093D01*
X2260073Y4695D01*
X2271538Y8310D01*
X2282644Y12910D01*
X2293307Y18461D01*
X2303446Y24920D01*
X2312983Y32238D01*
X2321845Y40359D01*
X2329967Y49222D01*
X2337285Y58759D01*
X2343744Y68898D01*
X2349294Y79561D01*
X2353895Y90666D01*
X2357509Y102131D01*
X2360111Y113867D01*
X2361680Y125786D01*
X2362205Y137795D01*
X2362205Y1437008D01*
X2361680Y1449017D01*
X2360111Y1460936D01*
X2357509Y1472672D01*
X2353895Y1484137D01*
X2349294Y1495243D01*
X2343744Y1505906D01*
X2337285Y1516044D01*
X2329967Y1525581D01*
X2321845Y1534444D01*
X2312983Y1542565D01*
X2303446Y1549883D01*
X2293307Y1556342D01*
X2282644Y1561893D01*
X2271538Y1566493D01*
X2260073Y1570108D01*
X2248337Y1572710D01*
X2236419Y1574279D01*
X2224409Y1574803D01*
X137795Y1574803D01*
X125786Y1574279D01*
X113867Y1572710D01*
X102131Y1570108D01*
X90666Y1566493D01*
X79561Y1561893D01*
X68898Y1556342D01*
X58759Y1549883D01*
X49222Y1542565D01*
X40359Y1534444D01*
X32238Y1525581D01*
X24920Y1516044D01*
X18461Y1505906D01*
X12910Y1495243D01*
X8310Y1484137D01*
X4695Y1472672D01*
X2093Y1460936D01*
X524Y1449017D01*
X0Y1437008D01*
X0Y137795D01*
M02*
