G04 EAGLE Gerber X2 export*
%TF.Part,Single*%
%TF.FileFunction,Paste,Bot*%
%TF.FilePolarity,Positive*%
%TF.GenerationSoftware,Autodesk,EAGLE,9.6.2*%
%TF.CreationDate,2021-10-14T21:11:24Z*%
G75*
%MOIN*%
%FSLAX36Y36*%
%LPD*%
%INBottom Solder Paste*%
%AMOC8*
5,1,8,0,0,1.08239X$1,22.5*%
G01*
%ADD10C,0.010000*%


D10*
X0Y137795D02*
X524Y125786D01*
X2093Y113867D01*
X4695Y102131D01*
X8310Y90666D01*
X12910Y79561D01*
X18461Y68898D01*
X24920Y58759D01*
X32238Y49222D01*
X40359Y40359D01*
X49222Y32238D01*
X58759Y24920D01*
X68898Y18461D01*
X79561Y12910D01*
X90666Y8310D01*
X102131Y4695D01*
X113867Y2093D01*
X125786Y524D01*
X137795Y0D01*
X2224409Y0D01*
X2236419Y524D01*
X2248337Y2093D01*
X2260073Y4695D01*
X2271538Y8310D01*
X2282644Y12910D01*
X2293307Y18461D01*
X2303446Y24920D01*
X2312983Y32238D01*
X2321845Y40359D01*
X2329967Y49222D01*
X2337285Y58759D01*
X2343744Y68898D01*
X2349294Y79561D01*
X2353895Y90666D01*
X2357509Y102131D01*
X2360111Y113867D01*
X2361680Y125786D01*
X2362205Y137795D01*
X2362205Y1437008D01*
X2361680Y1449017D01*
X2360111Y1460936D01*
X2357509Y1472672D01*
X2353895Y1484137D01*
X2349294Y1495243D01*
X2343744Y1505906D01*
X2337285Y1516044D01*
X2329967Y1525581D01*
X2321845Y1534444D01*
X2312983Y1542565D01*
X2303446Y1549883D01*
X2293307Y1556342D01*
X2282644Y1561893D01*
X2271538Y1566493D01*
X2260073Y1570108D01*
X2248337Y1572710D01*
X2236419Y1574279D01*
X2224409Y1574803D01*
X137795Y1574803D01*
X125786Y1574279D01*
X113867Y1572710D01*
X102131Y1570108D01*
X90666Y1566493D01*
X79561Y1561893D01*
X68898Y1556342D01*
X58759Y1549883D01*
X49222Y1542565D01*
X40359Y1534444D01*
X32238Y1525581D01*
X24920Y1516044D01*
X18461Y1505906D01*
X12910Y1495243D01*
X8310Y1484137D01*
X4695Y1472672D01*
X2093Y1460936D01*
X524Y1449017D01*
X0Y1437008D01*
X0Y137795D01*
X259843Y1375891D02*
X259573Y1371775D01*
X259034Y1367686D01*
X258230Y1363641D01*
X257162Y1359657D01*
X255837Y1355752D01*
X254258Y1351942D01*
X252434Y1348243D01*
X250372Y1344671D01*
X248081Y1341242D01*
X245570Y1337970D01*
X242851Y1334869D01*
X239934Y1331952D01*
X236834Y1329233D01*
X233562Y1326722D01*
X230132Y1324431D01*
X226561Y1322369D01*
X222862Y1320545D01*
X219051Y1318966D01*
X215146Y1317641D01*
X211162Y1316573D01*
X207117Y1315769D01*
X203028Y1315230D01*
X198913Y1314961D01*
X194788Y1314961D01*
X190673Y1315230D01*
X186584Y1315769D01*
X182539Y1316573D01*
X178555Y1317641D01*
X174649Y1318966D01*
X170839Y1320545D01*
X167140Y1322369D01*
X163568Y1324431D01*
X160139Y1326722D01*
X156867Y1329233D01*
X153766Y1331952D01*
X150850Y1334869D01*
X148131Y1337970D01*
X145620Y1341242D01*
X143329Y1344671D01*
X141266Y1348243D01*
X139442Y1351942D01*
X137864Y1355752D01*
X136538Y1359657D01*
X135471Y1363641D01*
X134666Y1367686D01*
X134128Y1371775D01*
X133858Y1375891D01*
X133858Y1380015D01*
X134128Y1384130D01*
X134666Y1388219D01*
X135471Y1392264D01*
X136538Y1396248D01*
X137864Y1400154D01*
X139442Y1403964D01*
X141266Y1407663D01*
X143329Y1411235D01*
X145620Y1414664D01*
X148131Y1417936D01*
X150850Y1421037D01*
X153766Y1423953D01*
X156867Y1426672D01*
X160139Y1429183D01*
X163568Y1431474D01*
X167140Y1433537D01*
X170839Y1435361D01*
X174649Y1436939D01*
X178555Y1438265D01*
X182539Y1439332D01*
X186584Y1440137D01*
X190673Y1440675D01*
X194788Y1440945D01*
X198913Y1440945D01*
X203028Y1440675D01*
X207117Y1440137D01*
X211162Y1439332D01*
X215146Y1438265D01*
X219051Y1436939D01*
X222862Y1435361D01*
X226561Y1433537D01*
X230132Y1431474D01*
X233562Y1429183D01*
X236834Y1426672D01*
X239934Y1423953D01*
X242851Y1421037D01*
X245570Y1417936D01*
X248081Y1414664D01*
X250372Y1411235D01*
X252434Y1407663D01*
X254258Y1403964D01*
X255837Y1400154D01*
X257162Y1396248D01*
X258230Y1392264D01*
X259034Y1388219D01*
X259573Y1384130D01*
X259843Y1380015D01*
X259843Y1375891D01*
X2228346Y1375891D02*
X2228077Y1371775D01*
X2227538Y1367686D01*
X2226734Y1363641D01*
X2225666Y1359657D01*
X2224341Y1355752D01*
X2222762Y1351942D01*
X2220938Y1348243D01*
X2218876Y1344671D01*
X2216585Y1341242D01*
X2214074Y1337970D01*
X2211355Y1334869D01*
X2208438Y1331952D01*
X2205337Y1329233D01*
X2202065Y1326722D01*
X2198636Y1324431D01*
X2195064Y1322369D01*
X2191366Y1320545D01*
X2187555Y1318966D01*
X2183650Y1317641D01*
X2179666Y1316573D01*
X2175621Y1315769D01*
X2171532Y1315230D01*
X2167416Y1314961D01*
X2163292Y1314961D01*
X2159177Y1315230D01*
X2155088Y1315769D01*
X2151043Y1316573D01*
X2147059Y1317641D01*
X2143153Y1318966D01*
X2139343Y1320545D01*
X2135644Y1322369D01*
X2132072Y1324431D01*
X2128643Y1326722D01*
X2125371Y1329233D01*
X2122270Y1331952D01*
X2119354Y1334869D01*
X2116635Y1337970D01*
X2114124Y1341242D01*
X2111833Y1344671D01*
X2109770Y1348243D01*
X2107946Y1351942D01*
X2106368Y1355752D01*
X2105042Y1359657D01*
X2103975Y1363641D01*
X2103170Y1367686D01*
X2102632Y1371775D01*
X2102362Y1375891D01*
X2102362Y1380015D01*
X2102632Y1384130D01*
X2103170Y1388219D01*
X2103975Y1392264D01*
X2105042Y1396248D01*
X2106368Y1400154D01*
X2107946Y1403964D01*
X2109770Y1407663D01*
X2111833Y1411235D01*
X2114124Y1414664D01*
X2116635Y1417936D01*
X2119354Y1421037D01*
X2122270Y1423953D01*
X2125371Y1426672D01*
X2128643Y1429183D01*
X2132072Y1431474D01*
X2135644Y1433537D01*
X2139343Y1435361D01*
X2143153Y1436939D01*
X2147059Y1438265D01*
X2151043Y1439332D01*
X2155088Y1440137D01*
X2159177Y1440675D01*
X2163292Y1440945D01*
X2167416Y1440945D01*
X2171532Y1440675D01*
X2175621Y1440137D01*
X2179666Y1439332D01*
X2183650Y1438265D01*
X2187555Y1436939D01*
X2191366Y1435361D01*
X2195064Y1433537D01*
X2198636Y1431474D01*
X2202065Y1429183D01*
X2205337Y1426672D01*
X2208438Y1423953D01*
X2211355Y1421037D01*
X2214074Y1417936D01*
X2216585Y1414664D01*
X2218876Y1411235D01*
X2220938Y1407663D01*
X2222762Y1403964D01*
X2224341Y1400154D01*
X2225666Y1396248D01*
X2226734Y1392264D01*
X2227538Y1388219D01*
X2228077Y1384130D01*
X2228346Y1380015D01*
X2228346Y1375891D01*
X2228346Y194788D02*
X2228077Y190673D01*
X2227538Y186584D01*
X2226734Y182539D01*
X2225666Y178555D01*
X2224341Y174649D01*
X2222762Y170839D01*
X2220938Y167140D01*
X2218876Y163568D01*
X2216585Y160139D01*
X2214074Y156867D01*
X2211355Y153766D01*
X2208438Y150850D01*
X2205337Y148131D01*
X2202065Y145620D01*
X2198636Y143329D01*
X2195064Y141266D01*
X2191366Y139442D01*
X2187555Y137864D01*
X2183650Y136538D01*
X2179666Y135471D01*
X2175621Y134666D01*
X2171532Y134128D01*
X2167416Y133858D01*
X2163292Y133858D01*
X2159177Y134128D01*
X2155088Y134666D01*
X2151043Y135471D01*
X2147059Y136538D01*
X2143153Y137864D01*
X2139343Y139442D01*
X2135644Y141266D01*
X2132072Y143329D01*
X2128643Y145620D01*
X2125371Y148131D01*
X2122270Y150850D01*
X2119354Y153766D01*
X2116635Y156867D01*
X2114124Y160139D01*
X2111833Y163568D01*
X2109770Y167140D01*
X2107946Y170839D01*
X2106368Y174649D01*
X2105042Y178555D01*
X2103975Y182539D01*
X2103170Y186584D01*
X2102632Y190673D01*
X2102362Y194788D01*
X2102362Y198913D01*
X2102632Y203028D01*
X2103170Y207117D01*
X2103975Y211162D01*
X2105042Y215146D01*
X2106368Y219051D01*
X2107946Y222862D01*
X2109770Y226561D01*
X2111833Y230132D01*
X2114124Y233562D01*
X2116635Y236834D01*
X2119354Y239934D01*
X2122270Y242851D01*
X2125371Y245570D01*
X2128643Y248081D01*
X2132072Y250372D01*
X2135644Y252434D01*
X2139343Y254258D01*
X2143153Y255837D01*
X2147059Y257162D01*
X2151043Y258230D01*
X2155088Y259034D01*
X2159177Y259573D01*
X2163292Y259843D01*
X2167416Y259843D01*
X2171532Y259573D01*
X2175621Y259034D01*
X2179666Y258230D01*
X2183650Y257162D01*
X2187555Y255837D01*
X2191366Y254258D01*
X2195064Y252434D01*
X2198636Y250372D01*
X2202065Y248081D01*
X2205337Y245570D01*
X2208438Y242851D01*
X2211355Y239934D01*
X2214074Y236834D01*
X2216585Y233562D01*
X2218876Y230132D01*
X2220938Y226561D01*
X2222762Y222862D01*
X2224341Y219051D01*
X2225666Y215146D01*
X2226734Y211162D01*
X2227538Y207117D01*
X2228077Y203028D01*
X2228346Y198913D01*
X2228346Y194788D01*
X259843Y194788D02*
X259573Y190673D01*
X259034Y186584D01*
X258230Y182539D01*
X257162Y178555D01*
X255837Y174649D01*
X254258Y170839D01*
X252434Y167140D01*
X250372Y163568D01*
X248081Y160139D01*
X245570Y156867D01*
X242851Y153766D01*
X239934Y150850D01*
X236834Y148131D01*
X233562Y145620D01*
X230132Y143329D01*
X226561Y141266D01*
X222862Y139442D01*
X219051Y137864D01*
X215146Y136538D01*
X211162Y135471D01*
X207117Y134666D01*
X203028Y134128D01*
X198913Y133858D01*
X194788Y133858D01*
X190673Y134128D01*
X186584Y134666D01*
X182539Y135471D01*
X178555Y136538D01*
X174649Y137864D01*
X170839Y139442D01*
X167140Y141266D01*
X163568Y143329D01*
X160139Y145620D01*
X156867Y148131D01*
X153766Y150850D01*
X150850Y153766D01*
X148131Y156867D01*
X145620Y160139D01*
X143329Y163568D01*
X141266Y167140D01*
X139442Y170839D01*
X137864Y174649D01*
X136538Y178555D01*
X135471Y182539D01*
X134666Y186584D01*
X134128Y190673D01*
X133858Y194788D01*
X133858Y198913D01*
X134128Y203028D01*
X134666Y207117D01*
X135471Y211162D01*
X136538Y215146D01*
X137864Y219051D01*
X139442Y222862D01*
X141266Y226561D01*
X143329Y230132D01*
X145620Y233562D01*
X148131Y236834D01*
X150850Y239934D01*
X153766Y242851D01*
X156867Y245570D01*
X160139Y248081D01*
X163568Y250372D01*
X167140Y252434D01*
X170839Y254258D01*
X174649Y255837D01*
X178555Y257162D01*
X182539Y258230D01*
X186584Y259034D01*
X190673Y259573D01*
X194788Y259843D01*
X198913Y259843D01*
X203028Y259573D01*
X207117Y259034D01*
X211162Y258230D01*
X215146Y257162D01*
X219051Y255837D01*
X222862Y254258D01*
X226561Y252434D01*
X230132Y250372D01*
X233562Y248081D01*
X236834Y245570D01*
X239934Y242851D01*
X242851Y239934D01*
X245570Y236834D01*
X248081Y233562D01*
X250372Y230132D01*
X252434Y226561D01*
X254258Y222862D01*
X255837Y219051D01*
X257162Y215146D01*
X258230Y211162D01*
X259034Y207117D01*
X259573Y203028D01*
X259843Y198913D01*
X259843Y194788D01*
M02*
