G04 EAGLE Gerber X2 export*
%TF.Part,Single*%
%TF.FileFunction,Paste,Top*%
%TF.FilePolarity,Positive*%
%TF.GenerationSoftware,Autodesk,EAGLE,9.6.2*%
%TF.CreationDate,2021-10-14T16:19:12Z*%
G75*
%MOMM*%
%FSLAX36Y36*%
%LPD*%
%INTop Solder Paste*%
%AMOC8*
5,1,8,0,0,1.08239X$1,22.5*%
G01*
%ADD10R,1.900000X0.600000*%
%ADD11C,0.442500*%
%ADD12R,1.000000X1.100000*%
%ADD13R,0.700000X0.600000*%
%ADD14C,1.187500*%
%ADD15R,1.100000X1.000000*%
%ADD16R,3.400000X1.900000*%


D10*
X23100000Y16635000D03*
X28900000Y16635000D03*
X23100000Y17905000D03*
X23100000Y15365000D03*
X23100000Y14095000D03*
X28900000Y17905000D03*
X28900000Y15365000D03*
X28900000Y14095000D03*
D11*
X27253750Y14521250D02*
X24746250Y14521250D01*
X24746250Y17478750D01*
X27253750Y17478750D01*
X27253750Y14521250D01*
X27253750Y14941625D02*
X24746250Y14941625D01*
X24746250Y15362000D02*
X27253750Y15362000D01*
X27253750Y15782375D02*
X24746250Y15782375D01*
X24746250Y16202750D02*
X27253750Y16202750D01*
X27253750Y16623125D02*
X24746250Y16623125D01*
X24746250Y17043500D02*
X27253750Y17043500D01*
X27253750Y17463875D02*
X24746250Y17463875D01*
D12*
X36000000Y14850000D03*
X36000000Y13150000D03*
D13*
X19000000Y14500000D03*
X19000000Y13500000D03*
D12*
X36000000Y17150000D03*
X36000000Y18850000D03*
D14*
X32181250Y24593750D02*
X32181250Y37406250D01*
X32181250Y24593750D02*
X28618750Y24593750D01*
X28618750Y37406250D01*
X32181250Y37406250D01*
X32181250Y25721875D02*
X28618750Y25721875D01*
X28618750Y26850000D02*
X32181250Y26850000D01*
X32181250Y27978125D02*
X28618750Y27978125D01*
X28618750Y29106250D02*
X32181250Y29106250D01*
X32181250Y30234375D02*
X28618750Y30234375D01*
X28618750Y31362500D02*
X32181250Y31362500D01*
X32181250Y32490625D02*
X28618750Y32490625D01*
X28618750Y33618750D02*
X32181250Y33618750D01*
X32181250Y34746875D02*
X28618750Y34746875D01*
X28618750Y35875000D02*
X32181250Y35875000D01*
X32181250Y37003125D02*
X28618750Y37003125D01*
X41381250Y37406250D02*
X41381250Y24593750D01*
X37818750Y24593750D01*
X37818750Y37406250D01*
X41381250Y37406250D01*
X41381250Y25721875D02*
X37818750Y25721875D01*
X37818750Y26850000D02*
X41381250Y26850000D01*
X41381250Y27978125D02*
X37818750Y27978125D01*
X37818750Y29106250D02*
X41381250Y29106250D01*
X41381250Y30234375D02*
X37818750Y30234375D01*
X37818750Y31362500D02*
X41381250Y31362500D01*
X41381250Y32490625D02*
X37818750Y32490625D01*
X37818750Y33618750D02*
X41381250Y33618750D01*
X41381250Y34746875D02*
X37818750Y34746875D01*
X37818750Y35875000D02*
X41381250Y35875000D01*
X41381250Y37003125D02*
X37818750Y37003125D01*
D12*
X29000000Y7150000D03*
X29000000Y8850000D03*
D15*
X33000000Y8850000D03*
X33000000Y7150000D03*
D12*
X23150000Y9000000D03*
X24850000Y9000000D03*
X42000000Y14850000D03*
X42000000Y13150000D03*
X35000000Y4850000D03*
X35000000Y3150000D03*
D16*
X19000000Y17050000D03*
X19000000Y20950000D03*
M02*
