G04 EAGLE Gerber X2 export*
%TF.Part,Single*%
%TF.FileFunction,Soldermask,Top*%
%TF.FilePolarity,Positive*%
%TF.GenerationSoftware,Autodesk,EAGLE,9.6.2*%
%TF.CreationDate,2021-10-14T16:19:12Z*%
G75*
%MOMM*%
%FSLAX36Y36*%
%LPD*%
%INTop Solder Mask*%
%AMOC8*
5,1,8,0,0,1.08239X$1,22.5*%
G01*
%ADD10R,2.103200X0.803200*%
%ADD11C,0.630638*%
%ADD12R,1.203200X1.303200*%
%ADD13R,0.903200X0.803200*%
%ADD14C,1.386894*%
%ADD15R,1.303200X1.203200*%
%ADD16R,3.603200X2.103200*%
%ADD17C,1.993900*%
%ADD18C,3.403200*%


D10*
X23100000Y16635000D03*
X28900000Y16635000D03*
X23100000Y17905000D03*
X23100000Y15365000D03*
X23100000Y14095000D03*
X28900000Y17905000D03*
X28900000Y15365000D03*
X28900000Y14095000D03*
D11*
X27261281Y14513719D02*
X24738719Y14513719D01*
X24738719Y17486281D01*
X27261281Y17486281D01*
X27261281Y14513719D01*
X27261281Y15112825D02*
X24738719Y15112825D01*
X24738719Y15711931D02*
X27261281Y15711931D01*
X27261281Y16311037D02*
X24738719Y16311037D01*
X24738719Y16910143D02*
X27261281Y16910143D01*
D12*
X36000000Y14850000D03*
X36000000Y13150000D03*
D13*
X19000000Y14500000D03*
X19000000Y13500000D03*
D12*
X36000000Y17150000D03*
X36000000Y18850000D03*
D14*
X32183153Y24591847D02*
X32183153Y37408153D01*
X32183153Y24591847D02*
X28616847Y24591847D01*
X28616847Y37408153D01*
X32183153Y37408153D01*
X32183153Y25909396D02*
X28616847Y25909396D01*
X28616847Y27226945D02*
X32183153Y27226945D01*
X32183153Y28544494D02*
X28616847Y28544494D01*
X28616847Y29862043D02*
X32183153Y29862043D01*
X32183153Y31179592D02*
X28616847Y31179592D01*
X28616847Y32497141D02*
X32183153Y32497141D01*
X32183153Y33814690D02*
X28616847Y33814690D01*
X28616847Y35132239D02*
X32183153Y35132239D01*
X32183153Y36449788D02*
X28616847Y36449788D01*
X41383153Y37408153D02*
X41383153Y24591847D01*
X37816847Y24591847D01*
X37816847Y37408153D01*
X41383153Y37408153D01*
X41383153Y25909396D02*
X37816847Y25909396D01*
X37816847Y27226945D02*
X41383153Y27226945D01*
X41383153Y28544494D02*
X37816847Y28544494D01*
X37816847Y29862043D02*
X41383153Y29862043D01*
X41383153Y31179592D02*
X37816847Y31179592D01*
X37816847Y32497141D02*
X41383153Y32497141D01*
X41383153Y33814690D02*
X37816847Y33814690D01*
X37816847Y35132239D02*
X41383153Y35132239D01*
X41383153Y36449788D02*
X37816847Y36449788D01*
D12*
X29000000Y7150000D03*
X29000000Y8850000D03*
D15*
X33000000Y8850000D03*
X33000000Y7150000D03*
D12*
X23150000Y9000000D03*
X24850000Y9000000D03*
X42000000Y14850000D03*
X42000000Y13150000D03*
X35000000Y4850000D03*
X35000000Y3150000D03*
D16*
X19000000Y17050000D03*
X19000000Y20950000D03*
D17*
X7165350Y15500000D02*
X5374650Y15500000D01*
X5374650Y20500000D02*
X7165350Y20500000D01*
D18*
X5000000Y35000000D03*
X55000000Y35000000D03*
X55000000Y5000000D03*
D17*
X55165350Y14500000D02*
X53374650Y14500000D01*
X53374650Y19500000D02*
X55165350Y19500000D01*
D18*
X5000000Y5000000D03*
M02*
