G04 EAGLE Gerber X2 export*
%TF.Part,Single*%
%TF.FileFunction,Paste,Top*%
%TF.FilePolarity,Positive*%
%TF.GenerationSoftware,Autodesk,EAGLE,9.6.2*%
%TF.CreationDate,2021-10-14T21:08:43Z*%
G75*
%MOIN*%
%FSLAX36Y36*%
%LPD*%
%INTop Solder Paste*%
%AMOC8*
5,1,8,0,0,1.08239X$1,22.5*%
G01*
%ADD10R,0.074803X0.023622*%
%ADD11C,0.017421*%
%ADD12R,0.039370X0.043307*%
%ADD13R,0.027559X0.023622*%
%ADD14C,0.046752*%
%ADD15R,0.043307X0.039370*%
%ADD16R,0.133858X0.074803*%


D10*
X909449Y654921D03*
X1137795Y654921D03*
X909449Y704921D03*
X909449Y604921D03*
X909449Y554921D03*
X1137795Y704921D03*
X1137795Y604921D03*
X1137795Y554921D03*
D11*
X1072983Y571702D02*
X974261Y571702D01*
X974261Y688140D01*
X1072983Y688140D01*
X1072983Y571702D01*
X1072983Y588252D02*
X974261Y588252D01*
X974261Y604802D02*
X1072983Y604802D01*
X1072983Y621352D02*
X974261Y621352D01*
X974261Y637902D02*
X1072983Y637902D01*
X1072983Y654452D02*
X974261Y654452D01*
X974261Y671002D02*
X1072983Y671002D01*
X1072983Y687552D02*
X974261Y687552D01*
D12*
X1417323Y584646D03*
X1417323Y517717D03*
D13*
X748031Y570866D03*
X748031Y531496D03*
D12*
X1417323Y675197D03*
X1417323Y742126D03*
D14*
X1266978Y968258D02*
X1266978Y1472686D01*
X1266978Y968258D02*
X1126722Y968258D01*
X1126722Y1472686D01*
X1266978Y1472686D01*
X1266978Y1012672D02*
X1126722Y1012672D01*
X1126722Y1057086D02*
X1266978Y1057086D01*
X1266978Y1101500D02*
X1126722Y1101500D01*
X1126722Y1145914D02*
X1266978Y1145914D01*
X1266978Y1190328D02*
X1126722Y1190328D01*
X1126722Y1234742D02*
X1266978Y1234742D01*
X1266978Y1279156D02*
X1126722Y1279156D01*
X1126722Y1323570D02*
X1266978Y1323570D01*
X1266978Y1367984D02*
X1126722Y1367984D01*
X1126722Y1412398D02*
X1266978Y1412398D01*
X1266978Y1456812D02*
X1126722Y1456812D01*
X1629183Y1472686D02*
X1629183Y968258D01*
X1488927Y968258D01*
X1488927Y1472686D01*
X1629183Y1472686D01*
X1629183Y1012672D02*
X1488927Y1012672D01*
X1488927Y1057086D02*
X1629183Y1057086D01*
X1629183Y1101500D02*
X1488927Y1101500D01*
X1488927Y1145914D02*
X1629183Y1145914D01*
X1629183Y1190328D02*
X1488927Y1190328D01*
X1488927Y1234742D02*
X1629183Y1234742D01*
X1629183Y1279156D02*
X1488927Y1279156D01*
X1488927Y1323570D02*
X1629183Y1323570D01*
X1629183Y1367984D02*
X1488927Y1367984D01*
X1488927Y1412398D02*
X1629183Y1412398D01*
X1629183Y1456812D02*
X1488927Y1456812D01*
D12*
X1141732Y281496D03*
X1141732Y348425D03*
D15*
X1299213Y348425D03*
X1299213Y281496D03*
D12*
X911417Y354331D03*
X978346Y354331D03*
X1653543Y584646D03*
X1653543Y517717D03*
X1377953Y190945D03*
X1377953Y124016D03*
D16*
X748031Y671260D03*
X748031Y824803D03*
M02*
